<svg width="57" height="57" viewBox="0 0 57 57" fill="none" xmlns="http://www.w3.org/2000/svg">
<g clip-path="url(#clip0_24_149)">
<path fill-rule="evenodd" clip-rule="evenodd" d="M31.0175 38.1425C30.3495 38.8096 29.4441 39.1843 28.5 39.1843C27.5559 39.1843 26.6505 38.8096 25.9825 38.1425L12.5448 24.7095C11.8768 24.0412 11.5016 23.1349 11.5018 22.19C11.5021 21.245 11.8776 20.3389 12.5459 19.6709C13.2143 19.0029 14.1206 18.6278 15.0655 18.628C16.0104 18.6282 16.9165 19.0038 17.5845 19.6721L28.5 30.5876L39.4155 19.6721C40.0871 19.0228 40.9868 18.6633 41.9209 18.671C42.855 18.6787 43.7487 19.0529 44.4095 19.7131C45.0704 20.3733 45.4454 21.2667 45.454 22.2008C45.4626 23.1348 45.1039 24.0349 44.4553 24.7071L31.0199 38.1449L31.0175 38.1425Z" fill="white"/>
</g>
<defs>
<clipPath id="clip0_24_149">
<rect width="57" height="57" fill="white"/>
</clipPath>
</defs>
</svg>
