<svg width="51" height="73" viewBox="0 0 51 73" fill="none" xmlns="http://www.w3.org/2000/svg">
<rect x="0.339508" width="20.7116" height="4.75349" rx="2.37674" fill="#677FE0"/>
<rect x="0.339508" y="7.46976" width="44.1395" height="4.75349" rx="2.37674" fill="#9167E0"/>
<rect x="14.6" y="14.9395" width="33.9535" height="4.75349" rx="2.37674" fill="#B2E0BA"/>
<rect y="22.4093" width="16.6372" height="4.75349" rx="2.37674" fill="#677FE0"/>
<rect x="0.339508" y="14.9395" width="12.2233" height="4.75349" rx="2.37674" fill="#E06780"/>
<rect x="36.3302" y="22.4093" width="14.6" height="4.75349" rx="2.37674" fill="#66E07A"/>
<rect x="23.4279" width="12.9023" height="4.75349" rx="2.37674" fill="#66E07A"/>
<rect width="20.7116" height="4.75349" rx="2.37674" transform="matrix(1 0 0 -1 0.339508 49.5721)" fill="#E06780"/>
<rect width="38.3674" height="4.75349" rx="2.37674" transform="matrix(1 0 0 -1 0.339508 42.1023)" fill="#9167E0"/>
<rect width="21.7302" height="4.75349" rx="2.37674" transform="matrix(1 0 0 -1 26.8233 34.6325)" fill="#9167E0"/>
<rect width="12.2233" height="4.75349" rx="2.37674" transform="matrix(1 0 0 -1 0.339508 34.6325)" fill="#66E07A"/>
<rect width="7.8093" height="4.75349" rx="2.37674" transform="matrix(1 0 0 -1 23.4279 49.5721)" fill="#66E07A"/>
<rect x="1.01859" y="53.307" width="22.4093" height="4.75349" rx="2.37674" fill="#677FE0"/>
<rect x="1.01859" y="68.2465" width="22.4093" height="4.75349" rx="2.37674" fill="#B2E0BA"/>
<rect width="12.5628" height="4.75349" rx="2.37674" transform="matrix(-1 0 0 1 23.4279 60.7768)" fill="#9167E0"/>
<rect width="8.48837" height="4.75349" rx="2.37674" transform="matrix(-1 0 0 1 9.50696 60.7768)" fill="#66E07A"/>
</svg>
