<svg width="80" height="70" viewBox="0 0 80 70" fill="none" xmlns="http://www.w3.org/2000/svg">
<path d="M40 42.125C43.935 42.125 47.125 38.935 47.125 35C47.125 31.065 43.935 27.875 40 27.875C36.065 27.875 32.875 31.065 32.875 35C32.875 38.935 36.065 42.125 40 42.125Z" fill="#677FE0"/>
<path d="M67.0625 23.25C65.6875 22.75 64.25 22.25 62.75 21.8125C63.125 20.3125 63.4375 18.8125 63.6875 17.375C65 9.125 63.5625 3.3125 59.5625 1.0625C58.375 0.375 57.0625 0.0625 55.5625 0.0625C51.1875 0.0625 45.625 3.3125 40 8.75C34.375 3.3125 28.8125 0.0625 24.4375 0.0625C22.9375 0.0625 21.625 0.375 20.4375 1.0625C16.4375 3.375 15 9.1875 16.3125 17.375C16.5625 18.8125 16.875 20.3125 17.25 21.8125C15.75 22.25 14.3125 22.6875 12.9375 23.25C5.125 26.25 0.875 30.375 0.875 35C0.875 39.625 5.1875 43.75 12.9375 46.75C14.3125 47.25 15.75 47.75 17.25 48.1875C16.875 49.6875 16.5625 51.1875 16.3125 52.625C15 60.875 16.4375 66.6875 20.4375 68.9375C21.625 69.625 22.9375 69.9375 24.4375 69.9375C28.875 69.9375 34.4375 66.6875 40 61.25C45.625 66.6875 51.1875 69.9375 55.5625 69.9375C57.0625 69.9375 58.375 69.625 59.5625 68.9375C63.5625 66.625 65 60.8125 63.6875 52.625C63.4375 51.1875 63.125 49.6875 62.75 48.1875C64.25 47.75 65.6875 47.3125 67.0625 46.75C74.875 43.75 79.125 39.625 79.125 35C79.125 30.375 74.875 26.25 67.0625 23.25ZM57.8125 4.1875C60.375 5.6875 61.25 10.3125 60.1875 16.875C60 18.1875 59.6875 19.5625 59.3125 21C56.0625 20.25 52.625 19.75 49 19.4375C46.875 16.4375 44.6875 13.75 42.5 11.3125C47.125 6.75 51.8125 3.625 55.625 3.625C56.4375 3.625 57.1875 3.8125 57.8125 4.1875ZM50.8125 41.25C49.6875 43.25 48.375 45.25 47 47.25C44.6875 47.4375 42.375 47.5 40 47.5C37.5625 47.5 35.25 47.4375 33 47.25C31.625 45.25 30.375 43.25 29.25 41.25C28.0625 39.1875 26.9375 37.0625 25.9375 35C26.9375 32.9375 28.0625 30.8125 29.25 28.75C30.375 26.75 31.6875 24.75 33.0625 22.75C35.375 22.5625 37.6875 22.5 40.0625 22.5C42.5 22.5 44.8125 22.5625 47.0625 22.75C48.4375 24.75 49.6875 26.75 50.8125 28.75C52 30.8125 53.125 32.9375 54.125 35C53.0625 37.0625 52 39.125 50.8125 41.25ZM56 39.1875C56.9375 41.375 57.6875 43.5 58.375 45.625C56.25 46.125 54 46.5 51.625 46.8125C52.375 45.625 53.1875 44.375 53.875 43.0625C54.625 41.75 55.3125 40.4375 56 39.1875ZM40 56.125C38.5 54.5 37.0625 52.75 35.6875 50.9375C37.125 51 38.5625 51.0625 40 51.0625C41.4375 51.0625 42.875 51 44.3125 50.9375C42.9375 52.75 41.5 54.5 40 56.125ZM28.375 46.75C26 46.4375 23.75 46.0625 21.625 45.5625C22.3125 43.5 23.0625 41.3125 24 39.125C24.6875 40.375 25.375 41.6875 26.125 42.9375C26.875 44.3125 27.625 45.5 28.375 46.75ZM24 30.8125C23.0625 28.625 22.3125 26.5 21.625 24.375C23.75 23.875 26 23.5 28.375 23.1875C27.625 24.375 26.8125 25.625 26.125 26.9375C25.375 28.25 24.6875 29.5625 24 30.8125ZM40 13.875C41.5 15.5 42.9375 17.25 44.3125 19.0625C42.875 19 41.4375 18.9375 40 18.9375C38.5625 18.9375 37.125 19 35.6875 19.0625C37.0625 17.25 38.5 15.5 40 13.875ZM53.875 27L51.625 23.25C54 23.5625 56.25 23.9375 58.375 24.4375C57.6875 26.5 56.9375 28.6875 56 30.875C55.3125 29.5625 54.625 28.25 53.875 27ZM19.8125 16.875C18.75 10.3125 19.625 5.6875 22.1875 4.1875C22.8125 3.8125 23.5625 3.625 24.375 3.625C28.125 3.625 32.8125 6.6875 37.5 11.3125C35.3125 13.6875 33.125 16.4375 31 19.4375C27.375 19.75 23.9375 20.3125 20.6875 21C20.3125 19.5625 20.0625 18.1875 19.8125 16.875ZM4.375 35C4.375 32.0625 7.9375 28.9375 14.1875 26.625C15.4375 26.125 16.8125 25.6875 18.1875 25.3125C19.1875 28.4375 20.4375 31.75 21.9375 35.0625C20.4375 38.375 19.125 41.625 18.1875 44.75C9.5625 42.25 4.375 38.5 4.375 35ZM22.1875 65.8125C19.625 64.3125 18.75 59.6875 19.8125 53.125C20 51.8125 20.3125 50.4375 20.6875 49C23.9375 49.75 27.375 50.25 31 50.5625C33.125 53.5625 35.3125 56.25 37.5 58.6875C32.875 63.25 28.1875 66.375 24.375 66.375C23.5625 66.375 22.8125 66.1875 22.1875 65.8125ZM60.1875 53.125C61.25 59.6875 60.375 64.3125 57.8125 65.8125C57.1875 66.1875 56.4375 66.375 55.625 66.375C51.875 66.375 47.1875 63.3125 42.5 58.6875C44.6875 56.3125 46.875 53.5625 49 50.5625C52.625 50.25 56.0625 49.6875 59.3125 49C59.6875 50.4375 59.9375 51.8125 60.1875 53.125ZM65.8125 43.375C64.5625 43.875 63.1875 44.3125 61.8125 44.6875C60.8125 41.5625 59.5625 38.25 58.0625 34.9375C59.5625 31.625 60.875 28.375 61.8125 25.25C70.4375 27.75 75.625 31.5 75.625 35C75.625 37.9375 72 41.0625 65.8125 43.375Z" fill="#677FE0"/>
</svg>
