<svg width="77" height="77" viewBox="0 0 77 77" fill="none" xmlns="http://www.w3.org/2000/svg">
<g clip-path="url(#clip0_68_305)">
<g clip-path="url(#clip1_68_305)">
<path d="M38.5 0C28.2892 0 18.4965 4.05624 11.2764 11.2764C4.05624 18.4965 0 28.2892 0 38.5C0 48.7108 4.05624 58.5035 11.2764 65.7236C18.4965 72.9438 28.2892 77 38.5 77C46.1079 76.985 53.5408 74.7163 59.8603 70.4803L28.2819 29.6811V53.8868H23.1V23.1H29.5776L63.9419 67.3654C68.0416 63.7557 71.3263 59.3149 73.5777 54.3381C75.8291 49.3613 76.9957 43.9624 77 38.5C77 28.2892 72.9438 18.4965 65.7236 11.2764C58.5035 4.05624 48.7108 0 38.5 0ZM49.194 23.1H54.3277V52.4418L49.194 45.7007V23.1ZM63.7398 67.5675L63.673 67.6253C63.6953 67.606 63.7175 67.5868 63.7398 67.5675Z" fill="white"/>
</g>
</g>
<defs>
<clipPath id="clip0_68_305">
<rect width="77" height="77" fill="white"/>
</clipPath>
<clipPath id="clip1_68_305">
<rect width="77" height="77" fill="white"/>
</clipPath>
</defs>
</svg>
