<svg width="80" height="80" viewBox="0 0 80 80" fill="none" xmlns="http://www.w3.org/2000/svg">
<g clip-path="url(#clip0_68_343)">
<g clip-path="url(#clip1_68_343)">
<path d="M47.0769 0.250015C46.5156 0.250015 45.9544 0.37439 45.4556 0.561265C46.5156 1.24751 47.0769 2.18251 47.3888 3.24251C47.3888 3.36751 47.4513 3.49251 47.4513 3.61689C47.4513 3.74189 47.5138 3.86626 47.5138 3.99064C47.5763 5.79939 47.0144 6.04876 46.6406 7.10876C46.0169 8.48001 46.2044 9.97689 46.9525 11.1613C47.015 11.2863 47.0775 11.4738 47.2019 11.5981C46.3913 6.36064 50.7556 5.61189 51.5663 3.99064C51.6288 2.55689 50.4444 1.62189 49.5088 0.93564C48.5738 0.37439 47.825 0.24939 47.0775 0.24939L47.0769 0.250015ZM53.625 1.37126C53.5625 1.87001 53.625 1.74564 53.5625 1.99501C53.5625 2.18189 53.5625 2.36876 53.5 2.55626C53.4375 2.74314 53.4375 2.86814 53.375 3.05501C53.3125 3.24251 53.2506 3.36689 53.1881 3.55376C53.1256 3.67876 53.0631 3.80314 53.0006 3.99001C52.9388 4.05251 52.8763 4.17751 52.8144 4.24001C52.7519 4.30251 52.7519 4.36439 52.6894 4.42689C52.5644 4.55189 52.5019 4.73814 52.3775 4.86314L52.0038 5.23751C51.8788 5.36251 51.7538 5.48689 51.6294 5.54876C51.1931 5.86126 50.6944 6.11001 50.2575 6.42189C50.1325 6.54689 49.9456 6.60939 49.8213 6.73376C49.6963 6.85876 49.5713 6.92126 49.4469 7.04564L49.0731 7.41939C48.9481 7.54439 48.8231 7.66939 48.7606 7.85626C48.6363 7.98126 48.5738 8.16814 48.4494 8.29251C48.3869 8.48001 48.3244 8.60439 48.2 8.79126C48.1375 8.97876 48.075 9.10376 48.0125 9.29001C47.95 9.47752 47.8881 9.66439 47.8881 9.78876C47.8881 9.85126 47.8881 9.97626 47.8256 10.0388C47.8256 10.1013 47.8256 10.2256 47.7631 10.2881V11.1606C47.7631 11.3481 47.7631 11.4731 47.8256 11.6594C47.8256 11.8469 47.8881 11.9719 47.9506 12.1588C48.0131 12.3456 48.0756 12.47 48.1381 12.6575C48.2 12.7825 48.2625 12.8444 48.2625 12.9694L43.5231 11.1606C42.7415 10.9239 41.9514 10.716 41.1544 10.5375C40.7175 10.4125 40.2813 10.35 39.8444 10.225C38.6072 9.97727 37.3586 9.79017 36.1031 9.66439H35.9781C34.7313 9.53939 33.5469 9.47689 32.3 9.47689C31.3644 9.47689 30.4913 9.53939 29.6188 9.60189C28.3713 9.66439 27.125 9.85189 25.8775 10.0388L24.9419 10.2256C24.3188 10.3506 23.695 10.475 23.0713 10.6619C22.7594 10.7244 22.4481 10.8494 22.1363 10.9119C21.8244 11.0363 21.5125 11.1606 21.2631 11.2856C21.0138 11.4106 20.8269 11.4731 20.5775 11.5975C20.515 11.5975 20.515 11.5975 20.4525 11.66C20.265 11.7844 20.0788 11.8469 19.8913 11.9713C19.8288 11.9713 19.7663 12.0338 19.7663 12.0338C19.5175 12.1588 19.33 12.2838 19.1431 12.3456C19.0181 12.4081 18.8313 12.4706 18.7069 12.5331C18.6444 12.595 18.5819 12.595 18.5194 12.6575C18.3325 12.7825 18.1456 12.8444 17.9581 12.9688C17.7713 13.0938 17.5844 13.1563 17.4594 13.2813C17.3344 13.4056 17.1475 13.4681 17.0231 13.5925C17.0231 13.5925 16.9606 13.5925 16.9606 13.655C16.8356 13.7175 16.7113 13.8425 16.5869 13.9669L16.5244 14.0294C16.3994 14.0919 16.3369 14.2163 16.2125 14.2788C16.15 14.2788 16.15 14.3413 16.0875 14.3413C15.9631 14.4038 15.9006 14.5281 15.7763 14.59C15.7763 14.6525 15.7138 14.6525 15.7138 14.6525L15.3394 15.0269L15.2769 15.0894L14.9031 15.4631C14.9031 15.4631 14.9031 15.5256 14.8406 15.5256L14.5288 15.8375C14.4663 15.9 14.4038 15.9 14.4038 15.9625L14.03 16.3363C14.03 16.3988 13.9675 16.3988 13.9675 16.4613L13.4688 16.9594L13.4063 17.0219C13.095 17.3963 12.7206 17.7081 12.3469 18.02C11.9725 18.3313 11.5981 18.6431 11.1619 18.955C10.7256 19.2669 10.3513 19.5163 9.915 19.7656C9.47813 20.015 9.04188 20.2019 8.60563 20.3894C8.16875 20.5763 7.7325 20.7631 7.29625 20.8881C6.42313 21.0756 5.55 21.4494 4.80188 21.5113C4.80188 21.2 4.61438 21.2619 4.4275 21.2619C4.24063 21.3244 4.05375 21.3244 3.92875 21.3869C3.74125 21.4494 3.61688 21.5119 3.43 21.5744C3.25214 21.6316 3.08398 21.7155 2.93125 21.8231C2.80625 21.9481 2.61938 22.0106 2.495 22.1356C2.37 22.26 2.1825 22.3844 2.05813 22.5094C1.93313 22.6344 1.74625 22.7588 1.62188 22.8831C1.49688 23.0081 1.37188 23.1331 1.2475 23.32C1.1225 23.5069 0.998125 23.6313 0.935625 23.8188C0.81125 23.9438 0.74875 24.1306 0.624375 24.3175C0.561875 24.505 0.436875 24.6913 0.374375 24.8788L0.1875 25.44C0.125 25.6269 0.125 25.7513 0.0625 25.9388V26.0013C0 26.1888 0 26.4375 0 26.5625C0.0625 26.5 0.0625 26.625 0.0625 26.7494V26.9988C0.0625 27.1238 0.125 27.2481 0.125 27.3725C0.1875 27.4975 0.1875 27.6225 0.25 27.7469C0.311875 27.8719 0.374375 27.9963 0.49875 28.1213C0.56125 28.2463 0.68625 28.3706 0.74875 28.495C0.873125 28.62 0.9975 28.745 1.1225 28.8069C1.2475 28.9319 1.37188 29.0569 1.49625 29.1188C1.995 29.555 2.12 29.68 2.74375 30.0538C2.86875 30.1163 2.93063 30.1788 3.05563 30.2413H3.11813V30.3663C3.11813 30.5525 3.18063 30.6775 3.2425 30.8644C3.305 31.0519 3.3675 31.2388 3.43 31.3631L3.61625 31.7375C3.61625 31.8 3.67875 31.8 3.67875 31.8625C3.74125 32.0494 3.86625 32.1738 3.92875 32.2988C4.05313 32.4238 4.11563 32.6106 4.24 32.735L4.61438 33.1094L4.98813 33.4831H5.05063C5.17563 33.6081 5.3 33.6706 5.425 33.7956C5.55 33.9206 5.73688 33.9825 5.86125 34.0444C5.98625 34.1069 6.17313 34.2319 6.36 34.2944C6.485 34.3569 6.61 34.4188 6.79625 34.4188C6.79625 34.4188 6.85875 34.4188 6.85875 34.4813C6.92125 34.4813 7.04625 34.5438 7.10875 34.5438C7.04625 35.6656 7.04625 36.7256 7.17125 37.1C7.3575 37.5363 8.29313 36.2269 9.16625 34.7931C9.04125 36.2269 8.97875 37.9106 9.16625 38.4094C9.41563 38.9081 10.6 37.2869 11.7225 35.5406C26.3131 32.1738 39.6569 42.275 41.0913 56.5544C40.8413 54.3094 38.0975 53.0625 36.7888 53.3744C36.165 54.8706 35.105 56.8663 33.4219 58.0506C33.5463 56.6788 33.4844 55.3069 33.2344 53.9356C32.7981 55.8063 31.925 57.6144 30.6781 59.1106C28.745 59.2356 26.75 58.3 25.7519 56.8663C25.6894 56.8038 25.6269 56.6788 25.565 56.6163C25.5025 56.4919 25.44 56.305 25.3775 56.18C25.315 56.055 25.2531 55.8681 25.2531 55.7438V54.9956C25.2531 54.8706 25.3156 54.6831 25.3781 54.5588C25.4406 54.4344 25.4406 54.2469 25.5031 54.1225C25.565 53.9975 25.6275 53.8106 25.7519 53.6863C26.1263 52.6881 26.1263 51.8775 25.44 51.4413L25.0663 51.2538C25.0038 51.2538 24.8788 51.1919 24.8163 51.1919C24.7538 51.1919 24.6919 51.1294 24.6294 51.1294C24.505 51.0669 24.3181 51.0669 24.1931 51.0044C24.0681 50.9419 23.8813 50.9419 23.7569 50.9419C23.6319 50.9419 23.4444 50.88 23.32 50.88H23.0088C22.8213 50.88 22.6963 50.88 22.5719 50.9425C22.4469 50.9425 22.26 51.005 22.1356 51.005C22.0106 51.0675 21.8238 51.0675 21.6988 51.13C21.5744 51.1919 21.4494 51.2544 21.2625 51.3163L20.8881 51.5038C16.0869 54.6213 18.9556 61.9788 22.1981 64.0988C20.9506 64.3488 19.7038 64.5975 19.3294 64.8475L19.2669 64.91C20.14 65.4706 21.0756 65.9075 22.0731 66.2813C23.3825 66.7181 24.8169 67.0919 25.44 67.2794C27.1238 67.6531 28.87 67.7781 30.6156 67.6531C39.7194 67.0294 47.2019 60.0463 48.5731 50.9425C48.6356 51.13 48.6356 51.3163 48.6981 51.5038C48.7606 51.8775 48.8231 52.2519 48.8856 52.6881C48.9481 52.8756 48.9481 53.0625 48.9481 53.2494V53.3119C48.9481 53.4994 49.01 53.6863 49.01 53.8731C49.01 54.1225 49.0725 54.3094 49.0725 54.5588V57.1775C49.0725 57.365 49.01 57.49 49.01 57.6769V57.8638C49.01 58.0513 48.9475 58.2381 48.9475 58.4875C48.885 58.6744 48.885 58.8613 48.8225 59.0488V59.1113C48.76 59.2981 48.76 59.485 48.6981 59.6719V59.7344C48.6356 59.9219 48.6356 60.1088 48.5731 60.2956V60.3581L48.3863 60.9194V60.9819C48.3238 61.1688 48.2613 61.4181 48.1994 61.605C48.1369 61.7925 48.0744 61.9794 47.9494 62.2288C47.8875 62.4156 47.825 62.665 47.7006 62.8519C47.6381 63.0394 47.5131 63.2263 47.4506 63.4756C47.3888 63.6631 47.2638 63.85 47.2019 64.0369C47.2019 64.0994 47.1394 64.1619 47.1394 64.1619C47.1394 64.1619 47.1394 64.2244 47.0769 64.2244C45.7675 66.905 43.7725 69.2744 41.2781 71.145C41.0906 71.27 40.9663 71.395 40.7794 71.5194C40.7169 71.5819 40.6544 71.5819 40.6544 71.6444C40.5294 71.7688 40.3425 71.8313 40.2181 71.9556L40.2806 72.0806C40.5919 72.0181 40.8419 72.0181 41.1531 71.9556C41.7144 71.8931 42.2131 71.7681 42.7744 71.6438C42.8994 71.6438 43.0869 71.5813 43.2113 71.5188C43.3363 71.5188 43.3981 71.4563 43.5225 71.4563C43.6469 71.4563 43.835 71.3944 43.9594 71.3944C44.0844 71.3319 44.2088 71.3319 44.3331 71.2694C46.3913 70.7713 48.3863 70.085 50.3194 69.2744C47.0144 73.7638 42.65 77.3806 37.5369 79.7494C39.9063 79.5625 42.2756 79.1888 44.5825 78.5025C52.8665 76.07 59.8569 70.4688 64.0369 62.9144C63.1644 67.6531 61.2931 72.205 58.4875 76.1956C60.4831 74.8863 62.2913 73.3269 63.975 71.6438C68.5888 66.8425 71.6438 60.6694 72.6419 54.1225C73.3281 57.365 73.5775 60.7319 73.2656 64.0369C88.1681 43.2731 74.5125 21.7613 68.7763 16.0869C68.7763 16.0244 68.7138 16.0244 68.7138 15.9619C68.7138 16.2119 68.7138 16.4606 68.6513 16.7106C68.5888 17.2094 68.5263 17.6456 68.4638 18.0819C68.3394 18.5188 68.215 19.0175 68.09 19.4538C67.965 19.8906 67.7781 20.3269 67.5913 20.7631C67.4038 21.2 67.2169 21.6363 66.9675 22.0106C66.7181 22.385 66.4688 22.8213 66.2194 23.195C65.97 23.5694 65.6581 23.9431 65.3463 24.3175C65.035 24.6919 64.7231 25.0031 64.3488 25.3775C64.1613 25.565 63.975 25.7519 63.7256 25.8763C63.5381 26.0013 63.4131 26.1263 63.2263 26.3125C62.8525 26.625 62.4781 26.8738 62.0419 27.1231C61.6675 27.3731 61.2313 27.6225 60.795 27.8094L59.485 28.3706C59.0488 28.5575 58.6125 28.6825 58.1756 28.8069C57.7394 28.9319 57.2406 29.0569 56.8038 29.1188C56.305 29.1813 55.8688 29.2438 55.4325 29.3063C55.12 29.3063 54.7463 29.3681 54.4344 29.3681C53.9356 29.3681 53.4994 29.3056 53.0631 29.3056C52.5638 29.2431 52.1275 29.1806 51.6913 29.1181C51.2183 29.0606 50.7562 28.9347 50.3194 28.7444C50.7556 28.6819 51.2544 28.6819 51.6913 28.5575C52.19 28.495 52.6263 28.37 53.0631 28.2456C53.4994 28.1206 53.9981 27.9963 54.3725 27.8094L55.6819 27.2481C56.1181 27.0606 56.4925 26.8119 56.9288 26.5625C57.3031 26.3125 57.7394 26.0013 58.1138 25.7519C58.4875 25.4394 58.8619 25.1281 59.1738 24.8163C59.5475 24.5044 59.8594 24.1306 60.1713 23.8188C60.4831 23.4444 60.795 23.0706 61.0444 22.6963C61.1069 22.6338 61.1069 22.5713 61.1694 22.5088C61.3556 22.1975 61.605 21.8231 61.7925 21.5119C62.025 21.1089 62.2331 20.6923 62.4156 20.2644C62.6031 19.8281 62.7906 19.3913 62.915 18.955L63.2888 17.6456C63.3513 17.1469 63.4763 16.7106 63.4763 16.2738C63.5388 15.775 63.5388 15.3388 63.5388 14.9019C63.5388 14.5906 63.5388 14.2163 63.4763 13.9044C63.4138 13.4056 63.3513 12.9694 63.2888 12.5325C63.2263 12.0338 63.1013 11.5975 62.9769 11.1606C62.8519 10.7244 62.665 10.2881 62.5406 9.85126C62.3531 9.41501 62.1663 8.97876 61.9794 8.60439C61.73 8.16814 61.5431 7.79376 61.2938 7.35751C61.0438 6.98314 60.7325 6.60876 60.4831 6.23501C60.1713 5.86064 59.8594 5.54876 59.5475 5.17501C59.3606 4.98751 59.1738 4.80064 58.9863 4.67626C58.0513 3.92814 57.1156 3.30439 56.1181 2.68064C55.9931 2.61814 55.8688 2.55564 55.6819 2.49314C54.8713 1.80814 54.2481 1.62064 53.625 1.37126Z" fill="#E06780"/>
</g>
</g>
<defs>
<clipPath id="clip0_68_343">
<rect width="80" height="80" fill="white"/>
</clipPath>
<clipPath id="clip1_68_343">
<rect width="80" height="80" fill="white"/>
</clipPath>
</defs>
</svg>
