<svg width="80" height="80" viewBox="0 0 80 80" fill="none" xmlns="http://www.w3.org/2000/svg">
<path d="M39.9994 0C39.3877 0.000508254 38.7869 0.160801 38.2562 0.465L7.15312 18.5287L18.0325 38.4875L40.37 0.033125C40.2477 0.0176482 40.1249 0.00659933 40.0019 0L39.9994 0ZM41.4469 0.378125V0.379375L63.4431 38.24L73.7838 19.2094C73.5908 19.014 73.3751 18.8426 73.1413 18.6987L57.1125 9.39L41.6875 0.47125H41.6831C41.6081 0.433125 41.5256 0.409375 41.4469 0.3775V0.378125ZM40.8069 0.533125L18.3856 39.135L40.6225 79.9337C40.685 79.9212 40.7463 79.9194 40.8081 79.9025L63.0912 38.8875L40.8069 0.533125ZM6.61625 18.86C5.6775 19.5044 5.1475 20.58 5.1475 21.7319V58.2806C5.1475 58.8619 5.30625 59.4294 5.575 59.9337L17.6625 39.1256L6.61625 18.86ZM74.2169 19.735L63.815 38.8781L74.8525 57.8769V21.7313C74.8525 21.0125 74.6137 20.3162 74.2169 19.735ZM63.4644 39.5269L41.7094 79.5656L41.7438 79.5481L73.1456 61.3088L73.1481 61.3075C74.0244 60.8119 74.5856 59.9606 74.7756 58.9994L63.4644 39.5269ZM18.0156 39.7731L5.96562 60.52C6.21937 60.8325 6.51875 61.105 6.85937 61.3112L6.86 61.3137L37.9238 79.355L38.255 79.5456L38.2588 79.5469H38.26C38.4206 79.6413 38.59 79.7131 38.7588 79.7794C38.8487 79.8131 38.9387 79.8444 39.0294 79.8706C39.1075 79.8938 39.1862 79.9094 39.2644 79.9263C39.4156 79.9581 39.5662 79.9812 39.7188 79.9938C39.7925 80 39.8669 80 39.9406 80L18.0156 39.7731Z" fill="#66E07A"/>
</svg>
