<svg width="77" height="80" viewBox="0 0 77 80" fill="none" xmlns="http://www.w3.org/2000/svg">
<path fill-rule="evenodd" clip-rule="evenodd" d="M38.5565 78.89C59.1751 78.8575 75.8661 61.4318 75.8661 39.9368C75.8661 18.7912 59.2521 1.3762 39.4035 1.00808C18.5582 0.621829 1.13936 18.1956 1.13394 39.5062C1.12793 61.4306 17.7443 78.9212 38.5565 78.89ZM38.4958 2.8937C58.2914 2.88683 74.0638 19.5968 74.0578 40.5687C74.0511 60.3681 57.8607 76.9312 38.5102 76.9356C18.7964 76.94 2.94284 60.3337 2.94344 39.6806C2.94465 19.56 19.0449 2.90058 38.4958 2.8937ZM23.5554 22.435C23.879 23.5556 22.9731 23.9456 22.01 24.0237C20.9963 24.105 19.9833 24.1843 18.8066 24.2775C22.6903 36.2987 26.5157 48.1418 30.4318 60.2606C30.711 59.7862 30.8259 59.6525 30.8764 59.4962C33.0264 52.82 35.1884 46.1481 37.2836 39.4531C37.4749 38.8425 37.3799 38.0337 37.1705 37.4062C36.0619 34.0812 34.7336 30.8287 33.7615 27.4637C33.0968 25.16 32.2149 23.6693 29.5939 23.9362C29.1475 23.9818 28.6025 22.9837 28.1026 22.4681C28.7072 22.0931 29.3075 21.4031 29.9175 21.3937C35.2547 21.3085 40.5928 21.3102 45.9299 21.3987C46.5423 21.4093 47.1427 22.1175 47.7472 22.5018C47.2178 23.0043 46.7613 23.7581 46.1423 23.9525C45.1491 24.2637 44.0476 24.205 42.8589 24.315L54.4986 60.29C56.2617 54.205 57.9022 48.6175 59.4975 43.0156C60.9208 38.015 60.0726 33.345 57.4991 28.9406C56.7255 27.6162 55.7751 26.3312 55.3365 24.8868C54.8384 23.2437 54.4246 21.3731 54.6886 19.725C55.1368 16.9318 57.1996 15.545 59.9908 15.2793C44.7159 0.55058 20.7124 5.82308 11.8676 21.8262C15.2725 21.6631 18.5233 21.4487 21.7766 21.4025C22.3914 21.3943 23.411 21.9343 23.5554 22.435ZM29.6414 71.1668C29.5704 71.3825 29.5662 71.6225 29.5102 71.9806C36.0931 73.8768 42.5491 73.74 49.1567 71.4268L39.0625 42.7018C35.8321 52.4587 32.734 61.8112 29.6414 71.1668ZM24.5546 69.8681L9.34647 26.5243C2.48565 40.4481 7.70481 61.6918 24.5546 69.8681ZM70.5308 42.0168C71.0133 35.4331 68.8272 26.3175 66.9395 25.0637C66.7289 27.4856 66.8757 30.18 66.2068 32.635C64.6325 38.4193 62.7075 44.1031 60.8535 49.8025C58.8382 55.9975 56.7436 62.1643 54.6832 68.3437C64.3636 62.3818 69.6832 53.5825 70.5308 42.0168Z" fill="#677FE0"/>
</svg>
